<mxfile host="app.diagrams.net" agent="Mozilla/5.0 (Windows NT 10.0; Win64; x64) AppleWebKit/537.36 (KHTML, like Gecko) Chrome/133.0.0.0 Safari/537.36" version="26.0.16">
  <diagram name="Page-1" id="5f0bae14-7c28-e335-631c-24af17079c00">
    <mxGraphModel dx="1031" dy="611" grid="1" gridSize="10" guides="1" tooltips="1" connect="1" arrows="1" fold="1" page="1" pageScale="1" pageWidth="1100" pageHeight="850" background="none" math="0" shadow="0">
      <root>
        <mxCell id="0" />
        <mxCell id="1" parent="0" />
        <mxCell id="39150e848f15840c-1" value="customers" style="verticalAlign=middle;align=center;spacingTop=8;spacingLeft=2;spacingRight=12;shape=cube;size=10;direction=south;fontStyle=5;html=1;rounded=0;shadow=0;comic=0;labelBackgroundColor=none;strokeWidth=1;fontFamily=Verdana;fontSize=12" parent="1" vertex="1">
          <mxGeometry x="360" y="280" width="250" height="160" as="geometry" />
        </mxCell>
        <mxCell id="39150e848f15840c-2" value="publications" style="verticalAlign=middle;align=center;spacingTop=8;spacingLeft=2;spacingRight=12;shape=cube;size=10;direction=south;fontStyle=5;html=1;rounded=0;shadow=0;comic=0;labelBackgroundColor=none;strokeWidth=1;fontFamily=Verdana;fontSize=12" parent="1" vertex="1">
          <mxGeometry x="680" y="280" width="250" height="160" as="geometry" />
        </mxCell>
        <mxCell id="39150e848f15840c-3" value="notifications" style="verticalAlign=middle;align=center;spacingTop=8;spacingLeft=2;spacingRight=12;shape=cube;size=10;direction=south;fontStyle=5;html=1;rounded=0;shadow=0;comic=0;labelBackgroundColor=none;strokeWidth=1;fontFamily=Verdana;fontSize=12" parent="1" vertex="1">
          <mxGeometry x="690" y="550" width="250" height="160" as="geometry" />
        </mxCell>
        <mxCell id="Ws_N59MCDQ9jmAsC8Dei-2" value="api" style="verticalAlign=middle;align=center;spacingTop=8;spacingLeft=2;spacingRight=12;shape=cube;size=10;direction=south;fontStyle=5;html=1;rounded=0;shadow=0;comic=0;labelBackgroundColor=none;strokeWidth=1;fontFamily=Verdana;fontSize=12" parent="1" vertex="1">
          <mxGeometry x="360" y="40" width="250" height="160" as="geometry" />
        </mxCell>
        <mxCell id="lP9emZjzQcybFYmv4kBy-3" value="&lt;span style=&quot;white-space: pre-wrap;&quot;&gt;file&lt;/span&gt;" style="verticalAlign=middle;align=center;spacingTop=8;spacingLeft=2;spacingRight=12;shape=cube;size=10;direction=south;fontStyle=5;html=1;rounded=0;shadow=0;comic=0;labelBackgroundColor=none;strokeWidth=1;fontFamily=Verdana;fontSize=13;horizontal=1;" parent="1" vertex="1">
          <mxGeometry x="40" y="280" width="250" height="170" as="geometry" />
        </mxCell>
        <mxCell id="lP9emZjzQcybFYmv4kBy-7" value="authorization" style="text;strokeColor=#d79b00;fillColor=#ffe6cc;align=left;verticalAlign=middle;spacingLeft=4;spacingRight=4;overflow=hidden;points=[[0,0.5],[1,0.5]];portConstraint=eastwest;rotatable=0;whiteSpace=wrap;html=1;" parent="1" vertex="1">
          <mxGeometry x="380" y="395" width="80" height="30" as="geometry" />
        </mxCell>
        <mxCell id="lP9emZjzQcybFYmv4kBy-8" value="authentication" style="text;strokeColor=#d79b00;fillColor=#ffe6cc;align=left;verticalAlign=middle;spacingLeft=4;spacingRight=4;overflow=hidden;points=[[0,0.5],[1,0.5]];portConstraint=eastwest;rotatable=0;whiteSpace=wrap;html=1;" parent="1" vertex="1">
          <mxGeometry x="490" y="395" width="90" height="30" as="geometry" />
        </mxCell>
        <mxCell id="lP9emZjzQcybFYmv4kBy-10" value="CRUD" style="text;strokeColor=#d79b00;fillColor=#ffe6cc;align=left;verticalAlign=middle;spacingLeft=4;spacingRight=4;overflow=hidden;points=[[0,0.5],[1,0.5]];portConstraint=eastwest;rotatable=0;whiteSpace=wrap;html=1;" parent="1" vertex="1">
          <mxGeometry x="850" y="395" width="50" height="30" as="geometry" />
        </mxCell>
        <mxCell id="lP9emZjzQcybFYmv4kBy-12" value="CRUD" style="text;strokeColor=#d79b00;fillColor=#ffe6cc;align=left;verticalAlign=middle;spacingLeft=4;spacingRight=4;overflow=hidden;points=[[0,0.5],[1,0.5]];portConstraint=eastwest;rotatable=0;whiteSpace=wrap;html=1;" parent="1" vertex="1">
          <mxGeometry x="450" y="310" width="50" height="30" as="geometry" />
        </mxCell>
        <mxCell id="lP9emZjzQcybFYmv4kBy-13" value="&lt;span style=&quot;white-space-collapse: preserve;&quot;&gt; &lt;/span&gt;&lt;span style=&quot;white-space-collapse: preserve;&quot; data-src-align=&quot;9:8&quot; class=&quot;EzKURWReUAB5oZgtQNkl&quot;&gt;email&lt;/span&gt;&lt;span style=&quot;white-space-collapse: preserve;&quot;&gt; &lt;/span&gt;&lt;span style=&quot;white-space-collapse: preserve;&quot; data-src-align=&quot;18:11&quot; class=&quot;EzKURWReUAB5oZgtQNkl&quot;&gt;notifications&lt;/span&gt;" style="text;strokeColor=#d79b00;fillColor=#ffe6cc;align=left;verticalAlign=middle;spacingLeft=4;spacingRight=4;overflow=hidden;points=[[0,0.5],[1,0.5]];portConstraint=eastwest;rotatable=0;whiteSpace=wrap;html=1;" parent="1" vertex="1">
          <mxGeometry x="750" y="660" width="110" height="30" as="geometry" />
        </mxCell>
        <mxCell id="lP9emZjzQcybFYmv4kBy-20" value="" style="endArrow=classic;startArrow=none;html=1;rounded=0;exitX=0;exitY=0;exitDx=160;exitDy=130;exitPerimeter=0;entryX=-0.012;entryY=0.516;entryDx=0;entryDy=0;entryPerimeter=0;startFill=0;" parent="1" source="Ws_N59MCDQ9jmAsC8Dei-2" target="39150e848f15840c-1" edge="1">
          <mxGeometry width="50" height="50" relative="1" as="geometry">
            <mxPoint x="520" y="410" as="sourcePoint" />
            <mxPoint x="570" y="360" as="targetPoint" />
          </mxGeometry>
        </mxCell>
        <mxCell id="lP9emZjzQcybFYmv4kBy-21" value="" style="endArrow=classic;startArrow=none;html=1;rounded=0;exitX=0;exitY=0;exitDx=160;exitDy=130;exitPerimeter=0;entryX=0;entryY=0;entryDx=0;entryDy=120;entryPerimeter=0;startFill=0;" parent="1" source="Ws_N59MCDQ9jmAsC8Dei-2" target="39150e848f15840c-2" edge="1">
          <mxGeometry width="50" height="50" relative="1" as="geometry">
            <mxPoint x="520" y="410" as="sourcePoint" />
            <mxPoint x="570" y="360" as="targetPoint" />
          </mxGeometry>
        </mxCell>
        <mxCell id="lP9emZjzQcybFYmv4kBy-22" value="" style="endArrow=classic;startArrow=none;html=1;rounded=0;exitX=0;exitY=0;exitDx=160;exitDy=130;exitPerimeter=0;entryX=0;entryY=0;entryDx=0;entryDy=120;entryPerimeter=0;startFill=0;" parent="1" source="Ws_N59MCDQ9jmAsC8Dei-2" target="lP9emZjzQcybFYmv4kBy-3" edge="1">
          <mxGeometry width="50" height="50" relative="1" as="geometry">
            <mxPoint x="520" y="410" as="sourcePoint" />
            <mxPoint x="570" y="360" as="targetPoint" />
          </mxGeometry>
        </mxCell>
        <mxCell id="lP9emZjzQcybFYmv4kBy-23" value="" style="endArrow=classic;startArrow=none;html=1;rounded=0;exitX=0;exitY=0;exitDx=160;exitDy=130;exitPerimeter=0;entryX=0;entryY=0;entryDx=0;entryDy=120;entryPerimeter=0;startFill=0;" parent="1" source="Ws_N59MCDQ9jmAsC8Dei-2" target="39150e848f15840c-3" edge="1">
          <mxGeometry width="50" height="50" relative="1" as="geometry">
            <mxPoint x="520" y="410" as="sourcePoint" />
            <mxPoint x="570" y="360" as="targetPoint" />
          </mxGeometry>
        </mxCell>
        <mxCell id="lP9emZjzQcybFYmv4kBy-29" value="upload download" style="text;strokeColor=#d79b00;fillColor=#ffe6cc;align=left;verticalAlign=middle;spacingLeft=4;spacingRight=4;overflow=hidden;points=[[0,0.5],[1,0.5]];portConstraint=eastwest;rotatable=0;whiteSpace=wrap;html=1;" parent="1" vertex="1">
          <mxGeometry x="102.5" y="395" width="105" height="30" as="geometry" />
        </mxCell>
        <mxCell id="lP9emZjzQcybFYmv4kBy-30" value="comments" style="text;strokeColor=#d79b00;fillColor=#ffe6cc;align=left;verticalAlign=middle;spacingLeft=4;spacingRight=4;overflow=hidden;points=[[0,0.5],[1,0.5]];portConstraint=eastwest;rotatable=0;whiteSpace=wrap;html=1;" parent="1" vertex="1">
          <mxGeometry x="700" y="395" width="70" height="30" as="geometry" />
        </mxCell>
        <mxCell id="nyQZEsZreWSwLv_kjuRk-1" value="" style="endArrow=classic;startArrow=none;html=1;rounded=0;startFill=0;entryX=1;entryY=0.48;entryDx=0;entryDy=0;entryPerimeter=0;exitX=0;exitY=0.4;exitDx=0;exitDy=0;exitPerimeter=0;" parent="1" source="39150e848f15840c-3" edge="1">
          <mxGeometry width="50" height="50" relative="1" as="geometry">
            <mxPoint x="840" y="540" as="sourcePoint" />
            <mxPoint x="840" y="440" as="targetPoint" />
          </mxGeometry>
        </mxCell>
        <mxCell id="UrjCjzTlY4mdxnqOmTbw-1" value="" style="endArrow=classic;startArrow=none;html=1;rounded=0;startFill=0;entryX=0;entryY=0;entryDx=160;entryDy=130;entryPerimeter=0;exitX=0;exitY=0.704;exitDx=0;exitDy=0;exitPerimeter=0;" edge="1" parent="1" source="39150e848f15840c-3" target="39150e848f15840c-1">
          <mxGeometry width="50" height="50" relative="1" as="geometry">
            <mxPoint x="680" y="500" as="sourcePoint" />
            <mxPoint x="680" y="390" as="targetPoint" />
          </mxGeometry>
        </mxCell>
      </root>
    </mxGraphModel>
  </diagram>
</mxfile>
